# AST/ASF file generated using VICON BodyLanguage
# -----------------------------------------------
:version 1.10
:name VICON
:units
  mass 1.0
  length 0.45
  angle deg
:documentation
   .ast/.asf automatically generated from VICON data using
   VICON BodyBuilder and BodyLanguage model FoxedUp or BRILLIANT.MOD
:root
   order TX TY TZ RX RY RZ
   axis XYZ
   position 0 0 0  
   orientation 0 0 0 
:bonedata
  begin
     id 1 
     name lhipjoint
     direction 0.535335 -0.74333 0.401095 
     length 2.04549 
     axis 0 0 0  XYZ
  end
  begin
     id 2 
     name lfemur
     direction 0.34202 -0.939693 0  
     length 6.95643  
     axis 0 0 20  XYZ
    dof rx ry rz
    limits (-160.0 20.0)
           (-70.0 70.0)
           (-60.0 70.0)
  end
  begin
     id 3 
     name ltibia
     direction 0.34192 -0.939729 0   
     length 5.55969   
     axis 0 0 20   XYZ
    dof rx
    limits (-10.0 170.0)
  end
  begin
     id 4 
     name lfoot
     direction 0.216943 -0.596046 0.773088   
     length 2.27918   
     axis -90 7.62852e-016 20   XYZ
    dof rx rz
    limits (-45.0 90.0)
           (-70.0 20.0)
  end
  begin
     id 5 
     name ltoes
     direction 1.53519e-011 -4.21748e-011 1   
     length 1.05562   
     axis -90 7.62852e-016 20   XYZ
    dof rx
    limits (-90.0 20.0)
  end
  begin
     id 6 
     name rhipjoint
     direction -0.576368 -0.719173 0.38806   
     length 2.1142  
     axis 0 0 0  XYZ 
  end
  begin
     id 7 
     name rfemur
     direction -0.34202 -0.939693 0   
     length 7.07928   
     axis 0 0 -20   XYZ
    dof rx ry rz
    limits (-160.0 20.0)
           (-70.0 70.0)
           (-70.0 60.0)
  end
  begin
     id 8 
     name rtibia
     direction -0.34202 -0.939693 0   
     length 5.79974   
     axis 0 0 -20   XYZ
    dof rx
    limits (-10.0 170.0)
 end
 begin
     id 9 
     name rfoot
     direction -0.189288 -0.520065 0.832888   
     length 2.42173  
     axis -90 -7.62852e-016 -20   XYZ
    dof rx rz
    limits (-45.0 90.0)
           (-20.0 70.0)
  end
  begin
     id 10 
     name rtoes
     direction -1.53574e-011 -4.21658e-011 1   
     length 1.14469   
     axis -90 -7.62852e-016 -20   XYZ
    dof rx
    limits (-90.0 20.0)
  end
  begin
     id 11 
     name lowerback
     direction -0.00135702 0.993803 0.111144   
     length 1.91308   
     axis 0 0 0   XYZ
    dof rx ry rz
    limits (-20.0 45.0)
           (-30.0 30.0)
           (-30.0 30.0)
  end
  begin
     id 12 
     name upperback
     direction -0.0056745 0.999813 0.0184631   
     length 1.9212   
     axis 0 0 0   XYZ
    dof rx ry rz
    limits (-20.0 45.0)
           (-30.0 30.0)
           (-30.0 30.0)
  end
  begin
     id 13 
     name thorax
     direction -0.00733434 0.999426 -0.0330788   
     length 1.94196   
     axis 0 0 0   XYZ
    dof rx ry rz
    limits (-20.0 45.0)
           (-30.0 30.0)
           (-30.0 30.0)
  end
  begin
     id 14 
     name lowerneck
     direction 0.0563074 0.996944 -0.0541571   
     length 2.34257   
     axis 0 0 0   XYZ
    dof rx ry rz
    limits (-20.0 45.0)
           (-30.0 30.0)
           (-30.0 30.0)
  end
  begin
     id 15 
     name upperneck
     direction -0.0544519 0.976166 -0.210085   
     length 2.32506   
     axis 0 0 0   XYZ
    dof rx ry rz
    limits (-20.0 45.0)
           (-30.0 30.0)
           (-30.0 30.0)
  end
  begin
     id 16
     name head
     direction -0.0226035 0.997615 -0.0652205  
     length 2.3648  
     axis 0 0 0   XYZ
    dof rx ry rz
    limits (-20.0 45.0)
           (-30.0 30.0)
           (-30.0 30.0)
  end
  begin
     id 17 
     name lclavicle
     direction 0.92109 0.381297 -0.0787716  
     length 4.0487  
     axis 0 0 0   XYZ
    dof ry rz
    limits (-20.0 10.0)
           (0.0 20.0)
  end
  begin
     id 18 
     name lhumerus
     direction 1 -4.48986e-011 3.56724e-027   
     length 4.94991   
     axis 180 -30 -90   XYZ
    dof rx ry rz
    limits (-60.0 90.0)
           (-90.0 90.0)
           (-90.0 90.0)
  end
  begin
     id 19
     name lradius
     direction 1 -4.48981e-011 8.62147e-027   
     length 2.7606   
     axis 180 -30 -90   XYZ
    dof rx
    limits (-10.0 170.0)
  end
  begin
     id 20
     name lwrist
     direction 1 -4.48989e-011 1.59799e-026   
     length 1.3803   
     axis -1.17785e-014 90 90   XYZ
    dof ry
    limits (-180.0 0.0)
 end
  begin
     id 21 
     name lhand
     direction 1 -4.48896e-011 3.19599e-026   
     length 0.843936   
     axis -2.03931e-014 90 90   XYZ
    dof rx rz
    limits (-90.0 90.0)
           (-45.0 45.0)
  end
  begin
     id 22 
     name lfingers
     direction 1 -4.48887e-011 6.39197e-026   
     length 0.680403   
     axis -4.07862e-014 90 90   XYZ
    dof rx
    limits (0.0 90.0)
  end
  begin
     id 23
     name lthumb
     direction 0.707107 -6.348e-011 0.707107   
     length 0.976926   
     axis -90 45 2.85299e-015   XYZ
    dof rx rz
    limits (-45.0 45.0)
           (-45.0 45.0)
  end
  begin
     id 24 
     name rclavicle
     direction -0.951104 0.307692 -0.026953   
     length 4.21801  
     axis 0 0 0   XYZ 
    dof ry rz
    limits (-10.0 20.0)
           (-20.0 0.0)
  end
  begin
     id 25 
     name rhumerus
     direction -1 -4.4896e-011 -1.8171e-018  
     length 4.32982   
     axis 180 30 90   XYZ
    dof rx ry rz
    limits (-90.0 60.0)
           (-90.0 90.0)
           (-90.0 90.0)
  end
  begin
     id 26 
     name rradius
     direction -1 -4.48959e-011 8.25165e-027   
     length 3.20057   
     axis 180 30 90   XYZ
    dof rx
    limits (-10.0 170.0)
  end
  begin
     id 27 
     name rwrist
     direction -1 -4.48997e-011 1.59799e-026   
     length 1.60029   
     axis -1.17785e-014 -90 -90   XYZ
    dof ry
    limits (-180.0 0.0)
  end
  begin
     id 28
     name rhand
     direction -1 -4.49023e-011 3.19599e-026   
     length 0.960433   
     axis -2.03931e-014 -90 -90   XYZ
    dof rx rz
    limits (-90.0 90.0)
           (-45.0 45.0)
  end
  begin
     id 29
     name rfingers
     direction -1 -4.48802e-011 6.39197e-026   
     length 0.774326   
     axis -4.07862e-014 -90 -90   XYZ
    dof rx
    limits (0.0 90.0)
  end
  begin
     id 30
     name rthumb
     direction -0.707107 -6.34876e-011 0.707107   
     length 1.11178   
     axis -90 -45 -2.85299e-015   XYZ
    dof rx rz
    limits (-45.0 45.0)
           (-45.0 45.0)
  end
:hierarchy
  begin
    root lhipjoint rhipjoint lowerback
    lhipjoint lfemur
    lfemur ltibia
    ltibia lfoot
    lfoot ltoes
    rhipjoint rfemur
    rfemur rtibia
    rtibia rfoot
    rfoot rtoes
    lowerback upperback
    upperback thorax
    thorax lowerneck lclavicle rclavicle
    lowerneck upperneck
    upperneck head
    lclavicle lhumerus
    lhumerus lradius
    lradius lwrist
    lwrist lhand lthumb
    lhand lfingers
    rclavicle rhumerus
    rhumerus rradius
    rradius rwrist
    rwrist rhand rthumb
    rhand rfingers
end

#!OML:ASF C:\KaitlinTest1\Natural Motions\Nikki\Session 2\Nikki.ASF
:FULLY-SPECIFIED
:DEGREES
256
root -11.5155 23.0934 4.6797 15.5826 81.3427 4.23489
lowerback -5.43161 -1.54875 0.368681
upperback -6.15898 -1.91367 -0.0595467
thorax -3.32426 -0.903996 -0.317609
lowerneck 4.45921 -5.66859 -15.9058
upperneck 13.5377 51.9472 9.934
head 172.197 56.9071 -33.5007
rclavicle -9.50284e-015 -9.0447e-015
rhumerus -73.2611 -1.61803 -39.3499
rradius 42.7058
rwrist -7.16348
rhand -48.4424 12.2812
rfingers 7.12502
rthumb -21.0935 -16.5915
lclavicle -9.50284e-015 -9.0447e-015
lhumerus -69.9745 7.00424 -4.78128
lradius 42.9448
lwrist 8.35041
lhand -53.3217 3.16423
lfingers 7.12502
lthumb -25.7738 31.4385
rfemur -21.1331 -20.0603 21.5885
rtibia 27.2739
rfoot 12.4922 17.6204
rtoes -3.18055e-014
lfemur -11.0355 12.2322 -17.5002
ltibia 12.9393
lfoot 28.9619 -4.95673
ltoes 4.13472e-014
257
root -11.4908 22.9959 4.67532 16.3277 81.3366 5.24223
lowerback -5.54224 -1.57551 0.270539
upperback -6.12584 -1.94721 -0.072476
thorax -3.2252 -0.917301 -0.280518
lowerneck 4.28697 -5.75851 -15.8366
upperneck 13.3752 51.7684 9.74964
head 171.801 57.0361 -33.7321
rclavicle -2.36911e-014 -1.2101e-014
rhumerus -74.0761 -1.88012 -38.5313
rradius 40.5942
rwrist -7.60547
rhand -47.719 13.5256
rfingers 7.12502
rthumb -20.3984 -15.423
lclavicle -2.36911e-014 -1.2101e-014
lhumerus -71.1946 7.12238 -5.89178
lradius 42.0499
lwrist 8.20348
lhand -53.789 3.62716
lfingers 7.12502
lthumb -26.2213 31.8357
rfemur -20.7958 -19.9239 21.4015
rtibia 27.2528
rfoot 12.5493 16.7573
rtoes 7.95139e-014
lfemur -10.6475 11.6447 -17.5086
ltibia 12.9848
lfoot 28.9692 -4.56891
ltoes 1.24042e-013
258
root -11.465 22.888 4.67122 16.651 81.3732 5.72384
lowerback -5.69203 -1.61879 0.306728
upperback -6.15931 -2.00349 -0.0932306
thorax -3.17932 -0.946146 -0.327314
lowerneck 4.46823 -6.03847 -15.6974
upperneck 12.5585 50.0715 8.74882
head 169.984 58.3993 -34.4822
rclavicle -2.81125e-014 -6.01324e-015
rhumerus -75.1983 -2.06642 -37.8479
rradius 39.4842
rwrist -8.35062
rhand -47.1739 13.176
rfingers 7.12502
rthumb -19.8744 -15.8278
lclavicle -2.81125e-014 -6.01324e-015
lhumerus -72.2632 6.93111 -6.87606
lradius 41.1047
lwrist 8.58016
lhand -54.1784 4.24152
lfingers 7.12502
lthumb -26.5941 32.3941
rfemur -20.649 -20.0879 21.3792
rtibia 27.2438
rfoot 12.6673 16.3373
rtoes 1.24042e-013
lfemur -10.4477 11.3451 -17.4772
ltibia 13.0817
lfoot 29.078 -4.93228
ltoes 2.22639e-013
259
root -11.4417 22.7663 4.66808 16.7719 81.5481 5.98042
lowerback -5.85656 -1.68522 0.347707
upperback -6.15003 -2.09139 -0.0582972
thorax -3.07906 -0.990304 -0.321751
lowerneck 4.04364 -6.0474 -15.6471
upperneck 12.6012 50.4661 8.86659
head 170.185 58.1444 -34.5256
rclavicle -1.32068e-014 9.24349e-015
rhumerus -76.4162 -2.21933 -37.3932
rradius 38.0011
rwrist -6.79561
rhand -47.6822 12.9953
rfingers 7.12502
rthumb -20.363 -15.9571
lclavicle -1.32068e-014 9.24349e-015
lhumerus -73.3204 6.87802 -7.83612
lradius 40.1972
lwrist 8.43309
lhand -54.3054 5.34761
lfingers 7.12502
lthumb -26.7156 33.4817
rfemur -20.5745 -20.281 21.4407
rtibia 27.2497
rfoot 12.5044 16.4959
rtoes 3.21236e-013
lfemur -10.3383 11.1511 -17.3755
ltibia 13.1973
lfoot 29.1929 -5.80705
ltoes 4.38917e-013
260
root -11.4168 22.6345 4.66458 17.8468 81.6909 7.15526
lowerback -6.08125 -1.78501 0.289721
upperback -6.16861 -2.21981 -0.0840448
thorax -2.9735 -1.05164 -0.326562
lowerneck 3.6868 -6.09008 -15.5464
upperneck 12.5358 50.5861 8.84486
head 170.059 58.1363 -34.7098
rclavicle -5.01621e-014 -1.61513e-014
rhumerus -77.5577 -2.37322 -36.7574
rradius 36.8423
rwrist -6.10821
rhand -47.846 13.0292
rfingers 7.12502
rthumb -20.5204 -15.9063
lclavicle -5.01621e-014 -1.61513e-014
lhumerus -74.3981 6.63751 -8.69927
lradius 39.4158
lwrist 8.61084
lhand -54.2353 5.85394
lfingers 7.12502
lthumb -26.6485 33.9983
rfemur -20.4899 -20.332 21.267
rtibia 27.251
rfoot 12.4306 16.7406
rtoes 1.68569e-013
lfemur -10.3399 11.3598 -17.4923
ltibia 13.3665
lfoot 29.2662 -7.07569
ltoes 1.90833e-013
261
root -11.3915 22.4892 4.6612 18.3268 81.8908 7.71067
lowerback -6.27563 -1.85921 0.340469
upperback -6.24189 -2.31459 -0.0598997
thorax -2.94414 -1.09829 -0.338268
lowerneck 3.35314 -6.08779 -15.5408
upperneck 12.5837 50.9287 8.93812
head 170.218 57.9224 -34.7448
rclavicle 2.45126e-014 1.11319e-014
rhumerus -78.7832 -2.64485 -35.8206
rradius 35.998
rwrist -5.57494
rhand -48.0132 12.8105
rfingers 7.12502
rthumb -20.6811 -16.1076
lclavicle 2.45126e-014 1.11319e-014
lhumerus -75.2888 6.28382 -9.61073
lradius 38.1793
lwrist 7.39358
lhand -53.8093 5.47839
lfingers 7.12502
lthumb -26.2408 33.684
rfemur -20.496 -20.5652 21.2703
rtibia 27.2345
rfoot 12.4427 17.3535
rtoes -1.27222e-014
lfemur -10.4068 11.5582 -17.4763
ltibia 13.575
lfoot 29.1634 -8.20688
ltoes 1.90833e-014
262
root -11.3649 22.3307 4.65646 19.29 82.1107 8.78263
lowerback -6.51531 -1.91346 0.389789
upperback -6.24978 -2.38628 -0.0983929
thorax -2.82397 -1.13543 -0.415972
lowerneck 2.98529 -6.17408 -15.4673
upperneck 12.4372 50.9183 8.84008
head 170.124 57.8591 -34.8677
rclavicle 3.10663e-014 9.74045e-015
rhumerus -80.1655 -2.72148 -35.3356
rradius 35.5524
rwrist -5.36741
rhand -48.1143 12.3496
rfingers 7.12502
rthumb -20.7782 -16.558
lclavicle 3.10663e-014 9.74045e-015
lhumerus -76.0122 5.93856 -10.0896
lradius 37.3688
lwrist 7.35576
lhand -53.6937 5.48687
lfingers 7.12502
lthumb -26.1301 33.7089
rfemur -20.3827 -20.4726 21.0968
rtibia 27.1759
rfoot 12.4194 17.8565
rtoes -4.23014e-013
lfemur -10.4899 12.1013 -17.5798
ltibia 13.8301
lfoot 29.0321 -9.87977
ltoes -5.02528e-013
263
root -11.3373 22.1667 4.65503 20.1034 82.3194 9.62551
lowerback -6.90692 -1.96805 0.405654
upperback -6.21672 -2.45717 -0.104997
thorax -2.57439 -1.17003 -0.448829
lowerneck 2.49776 -6.24033 -15.3771
upperneck 12.3291 51.066 8.81753
head 170.174 57.76 -34.9768
rclavicle 3.69491e-014 1.12313e-014
rhumerus -81.4143 -2.86717 -34.7615
rradius 35.1229
rwrist -5.29856
rhand -48.0251 12.1683
rfingers 7.12502
rthumb -20.6925 -16.7486
lclavicle 3.69491e-014 1.12313e-014
lhumerus -76.7225 5.60777 -10.4152
lradius 36.6278
lwrist 6.97438
lhand -53.4732 5.06958
lfingers 7.12502
lthumb -25.919 33.3227
rfemur -20.2828 -20.0273 20.9516
rtibia 27.0375
rfoot 12.1762 18.4189
rtoes -1.78111e-013
lfemur -10.7426 12.5692 -17.6345
ltibia 14.2128
lfoot 28.8033 -11.34
ltoes -2.60805e-013
264
root -11.3087 21.9902 4.64868 20.8564 82.5436 10.3056
lowerback -7.3463 -2.01873 0.563411
upperback -6.25787 -2.52606 -0.124698
thorax -2.38367 -1.20735 -0.575248
lowerneck 2.07583 -6.39967 -15.2435
upperneck 12.0946 50.8961 8.58853
head 169.611 57.9365 -35.3918
rclavicle -7.05686e-015 -4.37326e-015
rhumerus -82.6421 -2.91577 -34.2475
rradius 34.7399
rwrist -5.08436
rhand -48.154 9.58752
rfingers 7.12502
rthumb -20.8164 -19.3158
lclavicle -7.05686e-015 -4.37326e-015
lhumerus -77.4566 5.11634 -10.5883
lradius 36.0326
lwrist 6.29884
lhand -53.1441 4.84962
lfingers 7.12502
lthumb -25.6038 33.1485
rfemur -20.2671 -19.4838 20.8249
rtibia 26.842
rfoot 12.2575 18.7376
rtoes 6.04305e-014
lfemur -11.1326 13.3375 -17.7303
ltibia 14.6433
lfoot 28.3546 -12.855
ltoes -3.18055e-015
265
root -11.2787 21.8034 4.64508 21.1635 82.8076 10.6311
lowerback -7.73625 -2.06828 0.721242
upperback -6.26935 -2.59619 -0.12974
thorax -2.18958 -1.2453 -0.686289
lowerneck 1.71174 -6.3782 -15.2241
upperneck 12.0279 51.0662 8.64748
head 170.099 57.7504 -35.1963
rclavicle 2.47984e-014 5.96354e-016
rhumerus -83.9167 -2.83653 -34.0731
rradius 34.6273
rwrist -5.38604
rhand -48.0881 9.29581
rfingers 7.12502
rthumb -20.7531 -19.6145
lclavicle 2.47984e-014 5.96354e-016
lhumerus -78.1196 4.55953 -10.5542
lradius 35.6567
lwrist 6.07489
lhand -52.9014 4.12682
lfingers 7.12502
lthumb -25.3713 32.4589
rfemur -20.0317 -18.7327 20.6833
rtibia 26.5874
rfoot 12.3591 18.736
rtoes -1.7175e-013
lfemur -11.5008 14.3767 -17.7953
ltibia 15.1188
lfoot 28.0344 -14.7539
ltoes -1.46306e-013
266
root -11.251 21.6045 4.63939 22.6601 83.0118 12.1808
lowerback -8.06037 -2.09347 0.785033
upperback -6.29599 -2.6296 -0.193656
thorax -2.04596 -1.26274 -0.801197
lowerneck 1.30644 -6.54839 -15.0746
upperneck 11.8762 51.0378 8.51545
head 169.677 57.7522 -35.5494
rclavicle -4.99695e-014 -1.33186e-014
rhumerus -85.2555 -2.78246 -33.787
rradius 34.5941
rwrist -5.64151
rhand -47.5998 9.45232
rfingers 7.12502
rthumb -20.2838 -19.5085
lclavicle -4.99695e-014 -1.33186e-014
lhumerus -78.7458 3.88144 -10.0447
lradius 35.0658
lwrist 4.65331
lhand -53.2652 4.50667
lfingers 7.12502
lthumb -25.7198 32.7888
rfemur -19.77 -18.0378 20.3637
rtibia 26.3279
rfoot 12.4045 18.8228
rtoes -1.24042e-013
lfemur -11.8161 15.2308 -17.9963
ltibia 15.5869
lfoot 27.6184 -16.0421
ltoes -4.45278e-014
